<?xml version="1.0" encoding="utf-8"?>
<!-- Generator: Adobe Illustrator 21.1.0, SVG Export Plug-In . SVG Version: 6.00 Build 0)  -->
<svg version="1.1" id="Layer_1" xmlns="http://www.w3.org/2000/svg" xmlns:xlink="http://www.w3.org/1999/xlink" x="0px" y="0px"
	 viewBox="0 0 157 54" style="enable-background:new 0 0 157 54;" xml:space="preserve">
<style type="text/css">
	.st0{fill:#595959;}
</style>
<path class="st0" d="M156.4,7.6l-0.4-2h-36.4c-8.5,0-15.5,7-15.5,15.5l0,0.3c0.3,2.5,0.7,8.8-1,13.1c-1.5-1.9-3.6-3.3-6-4
	c2.2-2.6,3.5-6.1,3.5-10.4c0-12.6-9.3-20.1-18.3-20.1h-5l3,4c1.6,2.1,2,4.6,1.2,6.3c-0.8,1.6-2.7,2.5-5.4,2.5c-1.8,0-8.4,0-8.4,0
	c-6.1,0-11.1,5-11.1,11.1c0,2.5,0.8,4.7,2.2,6.6c-1.9,0.6-3.7,1.6-5.1,3c-1.2-4.3-0.9-9.7-0.6-12l0-0.3c0-8.5-7-15.5-15.5-15.5H1.1
	l-0.4,2c-0.1,0.6-1.1,5.5,1.8,9c0.9,1.1,2.6,2.5,5.3,3c0,1.8,0.5,4.2,2.1,6.1c1.2,1.5,3.5,3.2,7.7,3.2h0.1c0.1,1.8,0.5,4.1,2.1,6
	c1.2,1.5,3.5,3.2,7.7,3.2h11.5c1.2,10.5,10,16,18.8,16h2.1c0.8,0.2,1.6,0.2,2.4,0.2l31.8,0c0.7,0,1.3-0.1,1.9-0.2h3.6
	c8.7,0,17.6-5.5,18.8-16h11.5c4.2,0,6.5-1.7,7.7-3.2c1.5-1.9,2-4.2,2.1-6h0.1c4.2,0,6.5-1.7,7.7-3.2c1.6-1.9,2-4.3,2.1-6.1
	c2.7-0.5,4.3-1.8,5.3-3C157.4,13.1,156.5,8.2,156.4,7.6z M67.6,17.9c0,0,6.6,0,8.5,0c4.6,0,8.2-1.9,9.9-5.3c1-2.1,1.2-4.4,0.6-6.8
	c6.2,2.2,9,9.2,9,14.4c0,2.8-0.8,5.3-2.2,7c-1.5,1.9-3.7,2.8-6.5,2.8l-19.3,0c-3.4,0-6.1-2.7-6.1-6.1S64.3,17.9,67.6,17.9z M62.1,35
	l31.7,0c3.9,0.1,7,3.2,7,7.2c0,3.9-3.1,7-6.9,7.2l-31.7,0c-4,0-7.2-3.2-7.2-7.2S58.2,35,62.1,35z M43.7,35.7v-2.5H27.4
	c-1.8,0-3.1-0.4-3.8-1.3c-0.6-0.8-0.9-1.9-0.9-2.9h10.2v-5H17.6c-1.8,0-3.1-0.4-3.8-1.3c-0.6-0.8-0.9-1.8-0.9-2.8h12.6v-5H10.2
	c-1.8,0-3.1-0.4-3.8-1.3c-0.6-0.8-0.9-1.9-0.9-2.9h32.1c5.7,0,10.4,4.6,10.5,10.3c-0.2,1.9-1.2,11.5,2.4,17.8
	C50.1,39.9,50,41,50,42.2c0,2.1,0.5,4,1.4,5.7C46.1,45.8,43.7,40.7,43.7,35.7z M150.7,13.5c-0.7,0.9-2,1.3-3.8,1.3h-15.3v5h12.6
	c-0.1,0.9-0.3,2-0.9,2.8c-0.7,0.9-2,1.3-3.8,1.3h-15.3v5h10.2c0,1-0.3,2.1-0.9,2.9c-0.7,0.9-2,1.3-3.8,1.3h-16.3v2.5
	c0,5.6-3,11.1-9.4,12.9c1.1-1.8,1.8-4,1.8-6.3c0-0.7-0.1-1.3-0.2-2c4.8-6.1,3.7-17.3,3.4-19.3c0.1-5.7,4.8-10.3,10.5-10.3h32.1
	C151.6,11.6,151.3,12.7,150.7,13.5z"/>
</svg>
